<?xml version="1.0" encoding="UTF-8" standalone="no"?>
<!-- Created with Inkscape (http://www.inkscape.org/) -->

<svg
   xmlns:osb="http://www.openswatchbook.org/uri/2009/osb"
   xmlns:dc="http://purl.org/dc/elements/1.1/"
   xmlns:cc="http://creativecommons.org/ns#"
   xmlns:rdf="http://www.w3.org/1999/02/22-rdf-syntax-ns#"
   xmlns:svg="http://www.w3.org/2000/svg"
   xmlns="http://www.w3.org/2000/svg"
   xmlns:sodipodi="http://sodipodi.sourceforge.net/DTD/sodipodi-0.dtd"
   xmlns:inkscape="http://www.inkscape.org/namespaces/inkscape"
   width="89.429176mm"
   height="89.429169mm"
   viewBox="0 0 89.429176 89.429169"
   version="1.1"
   id="svg8"
   inkscape:version="0.92.2 5c3e80d, 2017-08-06"
   sodipodi:docname="logo.svg">
  <defs
     id="defs2">
    <linearGradient
       id="linearGradient5969"
       osb:paint="solid">
      <stop
         style="stop-color:#000000;stop-opacity:1;"
         offset="0"
         id="stop5967" />
    </linearGradient>
  </defs>
  <sodipodi:namedview
     id="base"
     pagecolor="#494646"
     bordercolor="#666666"
     borderopacity="1.0"
     inkscape:pageopacity="0"
     inkscape:pageshadow="2"
     inkscape:zoom="1.5373259"
     inkscape:cx="89.731922"
     inkscape:cy="135.3123"
     inkscape:document-units="px"
     inkscape:current-layer="layer1"
     showgrid="false"
     units="mm"
     showborder="true"
     inkscape:object-paths="false"
     inkscape:snap-intersection-paths="false"
     inkscape:snap-smooth-nodes="false"
     inkscape:measure-start="529.688,918.75"
     inkscape:measure-end="529.688,917.188"
     showguides="false"
     inkscape:guide-bbox="true"
     inkscape:object-nodes="false"
     inkscape:window-width="1440"
     inkscape:window-height="855"
     inkscape:window-x="3"
     inkscape:window-y="0"
     inkscape:window-maximized="0"
     inkscape:pagecheckerboard="true"
     borderlayer="false">
    <sodipodi:guide
       position="68.123108,115.79933"
       orientation="0,1"
       id="guide6175"
       inkscape:locked="false" />
  </sodipodi:namedview>
  <metadata
     id="metadata5">
    <rdf:RDF>
      <cc:Work
         rdf:about="">
        <dc:format>image/svg+xml</dc:format>
        <dc:type
           rdf:resource="http://purl.org/dc/dcmitype/StillImage" />
        <dc:title />
      </cc:Work>
    </rdf:RDF>
  </metadata>
  <g
     inkscape:label="Layer 1"
     inkscape:groupmode="layer"
     id="layer1"
     transform="translate(-60.447853,-103.43526)">
    <path
       style="fill:#ffffff;stroke-width:0.26458332;stroke-miterlimit:4;stroke-dasharray:none;paint-order:stroke fill markers"
       d="m 149.87703,148.14984 a 44.714584,44.714584 0 0 1 -44.71459,44.71459 44.714584,44.714584 0 0 1 -44.714587,-44.71459 44.714584,44.714584 0 0 1 44.714587,-44.71458 44.714584,44.714584 0 0 1 44.71459,44.71458 z"
       id="path6704"
       inkscape:connector-curvature="0" />
    <path
       style="fill:#ff6600;fill-opacity:1;stroke-width:0.26458332;stroke-miterlimit:4;stroke-dasharray:none;paint-order:stroke fill markers"
       d="m 102.19592,105.54194 c -24.403727,1.05908 -43.903947,25.9182 -39.101567,49.87305 3.51225,24.1482 30.16451,41.0551 53.505867,33.89258 23.687,-5.8957 37.85956,-34.11401 28.39454,-56.62891 -6.50624,-17.16511 -24.48819,-28.57126 -42.79884,-27.13672 z"
       id="path6706"
       inkscape:connector-curvature="0" />
    <g
       id="g6714"
       transform="matrix(2.8239851,0,0,2.7578045,-487.49405,-247.07553)"
       style="stroke:none;stroke-width:0;stroke-miterlimit:4;stroke-dasharray:none;stroke-opacity:1">
      <path
         id="path6712"
         style="fill:#ffffff;fill-opacity:1;stroke:none;stroke-width:0;stroke-linecap:butt;stroke-linejoin:miter;stroke-miterlimit:4;stroke-dasharray:none;stroke-opacity:1"
         d="m 203.0916,150.42265 c 0,0 3.21089,0.91559 4.80521,1.24109 2.05851,0.42032 6.1343,0.85482 6.1343,0.85482 m -1.72481,-0.25583 c 0,0 1.06241,-2.45491 1.29204,-3.70962 0.38439,-2.10064 0.33391,-3.76533 0.53666,-5.89715 0.0847,-0.88945 0.042,-3.14835 0.042,-3.14835 m -5.4529,12.49752 c 0,0 0.83327,-4.0456 0.93156,-6.19019 0.10404,-2.26654 -0.0767,-4.65352 -0.0681,-6.92304 0.005,-1.28847 -0.3448,-3.98246 -0.3448,-3.98246 m -4.20741,16.07921 c 0,0 0.66741,-3.47829 0.54447,-5.82125 -0.0999,-1.91447 -0.27745,-4.84495 -0.32936,-6.76165 -0.0285,-1.04652 -0.0247,-3.07756 -0.0247,-3.07756 m -2.17609,18.32807 c 0,0 0.34579,-1.19346 0.33159,-3.48574 -0.0136,-2.18621 -0.36899,-5.18169 -0.56255,-6.64962 -0.31932,-2.41942 -0.41694,-6.2671 -0.45262,-8.74709 -0.0189,-1.27535 0.16354,-2.3585 0.16354,-2.3585 2.36047,-1.26474 4.93217,-1.45503 6.68417,-1.45708 2.92119,0.14541 5.15952,0.855 7.63081,2.09394 0,0 0.12519,1.18879 0.10536,2.21691 -0.0487,2.54329 -0.21855,5.95021 -0.8276,8.6815 -0.42343,1.89907 -1.21355,5.07409 -1.90167,7.70987 -0.43761,1.67596 -0.47818,4.20213 -0.47818,4.20213 0,0 -3.96743,0.19038 -5.8972,-0.23347 -2.78457,-0.81783 -3.44545,-1.12077 -4.79565,-1.97285 z"
         inkscape:connector-curvature="0"
         sodipodi:nodetypes="cccccccccccccccccccccccccccc" />
    </g>
  </g>
</svg>
